<svg xmlns="http://www.w3.org/2000/svg" width="66" height="64" fill="none" viewBox="0 0 66 64"><path fill="#DDF1F8" d="M30.764 3.654 15.484 9.22a5.693 5.693 0 0 0-2.987 2.5L4.361 25.81a5.698 5.698 0 0 0-.675 3.84l2.828 16.014a5.692 5.692 0 0 0 1.945 3.373L20.92 59.495a5.671 5.671 0 0 0 3.661 1.33h16.262c1.34 0 2.63-.476 3.662-1.33l12.462-10.457a5.691 5.691 0 0 0 1.945-3.374L61.74 29.65c.229-1.32 0-2.68-.674-3.84L52.93 11.72a5.656 5.656 0 0 0-2.987-2.5l-15.28-5.566a5.695 5.695 0 0 0-3.89 0h-.01Z"/><path fill="#fff" d="M32.709 48.977c8.943 0 16.192-7.25 16.192-16.192 0-8.943-7.25-16.193-16.193-16.193-8.943 0-16.192 7.25-16.192 16.193 0 8.943 7.25 16.193 16.193 16.193Z"/><path fill="#106C89" d="M40.976 33.598h-1.499a.623.623 0 0 1-.625-.625c0-.347.278-.625.625-.625h1.499a.754.754 0 1 0 0-1.508h-6.867a.622.622 0 0 1-.625-.625c0-.347.278-.625.625-.625h6.867c1.1 0 2.004.893 2.004 1.994a1.997 1.997 0 0 1-2.004 1.994v.02Z"/><path fill="#106C89" d="M40.975 36.347h-1.498a.622.622 0 0 1-.625-.625c0-.347.277-.625.625-.625h1.498a.754.754 0 1 0 0-1.508.622.622 0 0 1-.625-.625c0-.347.278-.625.625-.625 1.101 0 2.004.893 2.004 1.994a1.997 1.997 0 0 1-2.004 1.995v.02Z"/><path fill="#106C89" d="M40.975 39.105h-1.498a.622.622 0 0 1-.625-.625c0-.347.277-.625.625-.625h1.498a.754.754 0 1 0 0-1.508.623.623 0 0 1-.625-.625c0-.348.278-.625.625-.625 1.101 0 2.004.893 2.004 1.994a1.997 1.997 0 0 1-2.004 1.994v.02Z"/><path fill="#106C89" d="M39.821 41.864h-6.47c-.575 0-1.15-.1-1.696-.288l-3.205-1.121a.611.611 0 0 1-.377-.794.611.611 0 0 1 .794-.377l3.205 1.121c.417.15.843.219 1.28.219h6.47a.754.754 0 1 0 0-1.509.622.622 0 0 1-.626-.625c0-.347.278-.625.625-.625a1.994 1.994 0 0 1 0 3.989v.01ZM28.443 31.118a.625.625 0 0 1-.605-.466.62.62 0 0 1 .456-.755c4.465-1.11 5.19-6.796 5.19-6.856a.61.61 0 0 1 .505-.535c1.042-.18 3.136.079 3.563 2.4.446 2.471-.705 5.428-.755 5.547a.618.618 0 1 1-1.151-.456c.01-.03 1.072-2.749.685-4.872-.218-1.2-1.121-1.419-1.697-1.429-.297 1.578-1.557 6.28-6.042 7.402a.76.76 0 0 1-.149.02Z"/><path fill="#106C89" d="M27.678 41.863h-3.84c-.764 0-1.389-.625-1.389-1.389V29.5c0-.764.625-1.389 1.39-1.389h3.84c.763 0 1.388.625 1.388 1.39v10.973c0 .764-.625 1.39-1.389 1.39Zm-3.84-12.511c-.08 0-.149.069-.149.148v10.974c0 .08.07.15.15.15h3.84c.079 0 .148-.07.148-.15V29.5c0-.079-.07-.148-.149-.148h-3.84ZM20.07 13.516a.762.762 0 0 0-.497-.159.873.873 0 0 0-.515.219c-.259.208-.387.456-.387.763 0 .308.128.626.396.963.268.337.556.546.854.615.297.07.575 0 .843-.208.228-.189.367-.387.407-.596.04-.208-.02-.406-.159-.595l-.694.556-.497-.625 1.519-1.22.377.466c.248.317.406.634.446.972.04.337 0 .655-.139.962a2.166 2.166 0 0 1-.665.824c-.337.268-.694.437-1.061.486-.367.05-.734 0-1.092-.149-.357-.159-.684-.416-.982-.793-.308-.387-.496-.774-.566-1.161-.069-.387-.03-.764.11-1.112.139-.347.367-.645.684-.893.268-.218.556-.367.863-.436.298-.07.596-.08.883 0 .288.07.536.208.755.417l-.864.694-.02.01ZM23.869 14.647l-1.826-4.138 2.877-1.27.358.814-1.886.833.377.844 1.737-.764.357.813-1.736.764.377.854 1.885-.834.357.814-2.877 1.27ZM30.953 7.92l.714 4.465-.913.149-2.193-2.292h-.03l.417 2.58-1.081.168-.715-4.465.933-.149 2.173 2.292h.04l-.417-2.58 1.072-.168ZM36.083 8.168l1.072.119-.328 2.967c-.04.337-.149.615-.337.833a1.491 1.491 0 0 1-.725.457c-.297.089-.635.109-1.012.069a2.546 2.546 0 0 1-.972-.288 1.48 1.48 0 0 1-.605-.605c-.13-.248-.179-.546-.14-.893l.328-2.967 1.082.12-.328 2.926c-.02.199.03.377.169.506a.994.994 0 0 0 .566.248c.248.03.446-.01.615-.119a.58.58 0 0 0 .277-.456l.328-2.927.01.01ZM40.27 9.21l-1.388 4.296-1.042-.338 1.389-4.296 1.042.337ZM45.629 11.829l-2.223 3.929-.803-.457-.288-3.155h-.02l-1.28 2.252-.953-.535 2.223-3.93.814.467.268 3.145.03.02 1.28-2.262.952.536v-.01ZM44.348 16.522l3.145-3.245 2.262 2.193-.615.635-1.478-1.429-.645.665 1.359 1.32-.615.635-1.36-1.32-.644.665 1.478 1.429-.615.635-2.262-2.193-.01.01ZM13.113 47.4l3.533-2.817 1.16 1.459c.209.267.338.535.397.803.05.278.03.536-.07.784a1.56 1.56 0 0 1-.515.665 1.562 1.562 0 0 1-.764.347c-.268.04-.526 0-.784-.119a1.905 1.905 0 0 1-.704-.575l-.467-.576-1.101.873-.685-.853v.01Zm2.451-.555.337.417c.15.188.318.298.497.318.178.02.347-.03.515-.16.17-.128.258-.287.268-.456.02-.178-.05-.357-.208-.555l-.337-.417-1.072.853ZM16.637 51.46l2.808-3.543 1.458 1.16c.268.21.457.438.576.686.119.248.159.506.119.764-.03.258-.15.505-.338.754a1.464 1.464 0 0 1-.654.496c-.239.089-.497.099-.764.03l-.338 1.934-.933-.744.318-1.726-.436-.348-.963 1.21-.853-.674Zm2.351-1.211.427.337c.188.149.367.228.526.238.159.01.307-.08.436-.238.258-.327.189-.645-.198-.953l-.427-.337-.764.963v-.01ZM25.875 54.396c-.209.456-.467.794-.784 1.032a1.959 1.959 0 0 1-1.032.397 2.22 2.22 0 0 1-1.111-.209 2.315 2.315 0 0 1-.893-.694 1.894 1.894 0 0 1-.378-1.032c-.03-.387.06-.813.259-1.27.208-.456.466-.804.783-1.032a1.927 1.927 0 0 1 1.032-.397c.367-.03.744.04 1.111.209.368.168.665.397.894.694.228.298.347.645.386 1.032.03.397-.05.814-.258 1.27h-.01Zm-1.023-.456c.18-.407.239-.754.17-1.042-.07-.288-.259-.496-.556-.635-.298-.13-.576-.13-.844 0-.268.129-.486.407-.665.814-.178.406-.238.754-.168 1.041.07.288.258.496.555.635.298.13.576.13.844 0 .268-.139.486-.407.665-.813ZM28.592 57.293l-1.647-.268.735-4.455 1.647.268c.456.08.833.228 1.13.457.298.228.517.526.636.893.119.357.149.773.07 1.24-.08.466-.229.853-.467 1.15a1.97 1.97 0 0 1-.883.646c-.357.129-.764.149-1.22.08v-.01Zm-.416-1.012.526.09c.377.059.684.01.912-.15.229-.168.387-.485.467-.972.08-.476.03-.833-.14-1.061-.168-.229-.446-.377-.823-.437l-.516-.08-.426 2.62v-.01ZM35.143 52.998l1.081-.09.248 2.977c.03.337-.03.635-.169.883a1.51 1.51 0 0 1-.625.595c-.277.15-.605.228-.982.268-.377.03-.714 0-1.012-.1a1.465 1.465 0 0 1-.714-.485c-.179-.219-.278-.506-.308-.844l-.248-2.976 1.091-.09.239 2.937a.6.6 0 0 0 .267.467c.16.109.368.148.606.129.248-.02.436-.1.585-.228a.584.584 0 0 0 .189-.507l-.238-2.936h-.01ZM41.548 52.918l-1.041.367a.778.778 0 0 0-.437-.416c-.188-.08-.397-.07-.635 0-.308.109-.516.307-.615.595-.1.288-.08.635.07 1.042.148.426.347.714.605.863.258.159.535.179.833.07.228-.08.397-.199.496-.368a.812.812 0 0 0 .11-.575l1.041-.357c.05.198.06.396.03.615-.03.218-.09.427-.199.635-.109.208-.258.387-.456.555a2.174 2.174 0 0 1-.734.407 2.207 2.207 0 0 1-1.121.11 1.897 1.897 0 0 1-.983-.497c-.288-.268-.516-.635-.684-1.101-.169-.466-.219-.903-.15-1.29.07-.387.22-.724.467-.992.248-.268.556-.476.943-.615.347-.12.675-.169.992-.14.318.03.605.14.853.318.258.179.457.437.615.764v.01ZM42.166 51.757l-.486-.744 3.185-2.104.486.744-1.141.754 2.004 3.027-.903.595-2.004-3.026-1.141.754ZM48.16 47.51a.533.533 0 0 0-.407-.12c-.139.02-.288.11-.437.269-.148.159-.228.297-.238.426-.01.13.02.239.11.328.089.099.208.129.347.09.139-.04.297-.11.466-.23l.328-.217c.377-.258.724-.397 1.051-.417.328-.02.615.1.883.337.308.298.447.645.407 1.042-.04.397-.258.794-.645 1.21-.387.417-.794.655-1.22.725-.417.07-.824-.07-1.21-.427l.714-.764c.168.14.337.199.526.169.178-.03.357-.139.525-.308.15-.158.239-.317.258-.466a.41.41 0 0 0-.119-.367c-.089-.09-.208-.11-.337-.08-.13.03-.308.12-.516.258l-.407.268c-.337.219-.645.348-.952.367-.308.02-.576-.079-.824-.317a1.193 1.193 0 0 1-.377-.665c-.05-.258-.02-.516.08-.794.099-.277.267-.535.506-.783.238-.258.496-.437.754-.546.267-.11.515-.14.773-.1.248.04.487.16.685.348l-.714.764h-.01Z"/><path fill="#106C89" d="M41.58 64H23.84a6.842 6.842 0 0 1-4.396-1.597L5.851 50.993a6.847 6.847 0 0 1-2.342-4.05L.423 29.462a6.843 6.843 0 0 1 .814-4.604l8.88-15.369A6.84 6.84 0 0 1 13.7 6.482L30.37.409a6.875 6.875 0 0 1 4.673 0L51.72 6.482a6.84 6.84 0 0 1 3.582 3.006l8.87 15.37a6.843 6.843 0 0 1 .814 4.603L61.9 46.944a6.847 6.847 0 0 1-2.342 4.048l-13.593 11.41A6.842 6.842 0 0 1 41.57 64h.01ZM30.795 1.58l-16.68 6.072a5.573 5.573 0 0 0-2.926 2.461l-8.87 15.37a5.614 5.614 0 0 0-.665 3.77L4.74 46.736a5.582 5.582 0 0 0 1.914 3.314l13.594 11.41a5.595 5.595 0 0 0 3.592 1.31h17.75c1.31 0 2.59-.467 3.592-1.31l13.593-11.41a5.632 5.632 0 0 0 1.915-3.314l3.086-17.483c.228-1.29 0-2.63-.665-3.77l-8.87-15.37a5.573 5.573 0 0 0-2.927-2.46L34.624 1.58a5.615 5.615 0 0 0-3.82 0h-.009Z"/><path fill="#106C89" d="M13.164 43.323a.604.604 0 0 1-.535-.308 23.158 23.158 0 0 1-3.086-12.432c.139-3.86 1.24-7.65 3.195-10.964a.619.619 0 0 1 .853-.218.619.619 0 0 1 .218.853 22.039 22.039 0 0 0-3.026 10.378A21.972 21.972 0 0 0 13.7 42.4a.617.617 0 0 1-.536.923ZM52.316 43.482a.675.675 0 0 1-.308-.08.628.628 0 0 1-.228-.853 21.879 21.879 0 0 0 2.917-11.926 22.021 22.021 0 0 0-3.135-10.419.625.625 0 0 1 .208-.853.627.627 0 0 1 .854.208 23.246 23.246 0 0 1 3.314 11.004 23.12 23.12 0 0 1-3.086 12.601.628.628 0 0 1-.536.308v.01Z"/></svg>