<svg xmlns="http://www.w3.org/2000/svg" width="66" height="64" fill="none" viewBox="0 0 66 64"><path fill="#DDF1F8" d="M32.956 61.087c16.105 0 29.16-13.022 29.16-29.086S49.061 2.914 32.956 2.914c-16.104 0-29.16 13.023-29.16 29.087s13.056 29.087 29.16 29.087Z"/><path fill="#fff" d="M32.954 44.196c6.752 0 12.227-5.46 12.227-12.197 0-6.736-5.474-12.196-12.227-12.196s-12.227 5.46-12.227 12.196S26.2 44.196 32.954 44.196Z"/><path fill="#106C89" d="m23.485 16.129-2.016-3.92 2.677-1.375.394.763-1.727.89.417.798 1.565-.798.394.775-1.565.797.812 1.573-.95.485v.012ZM28.701 9.481l1.032-.243.66 2.833c.07.323.058.612-.034.878a1.506 1.506 0 0 1-.522.66 2.463 2.463 0 0 1-.915.392c-.36.081-.696.104-.997.046-.301-.057-.556-.173-.753-.37-.209-.184-.348-.45-.418-.774l-.66-2.832 1.043-.243.649 2.798c.046.196.15.335.324.416.174.08.371.092.603.046.232-.058.417-.15.533-.3.116-.15.15-.324.116-.51l-.649-2.797h-.012ZM31.887 13.48l.08-4.404 1.067.023-.058 3.538 1.831.034v.868l-2.92-.047v-.011ZM35.816 13.666l1.032-4.277 1.031.254-.834 3.445 1.785.428-.197.844-2.828-.682.011-.012ZM40.73 10.371l1.077.52.035 2.07h.035l1.645-1.237 1.078.52-2.735 1.942-.637 1.33-.95-.463.637-1.33-.174-3.34-.012-.012ZM16.29 48.023l3.128-3.11 1.287 1.283c.232.232.394.474.475.729.081.254.093.508.035.751-.058.243-.197.474-.418.694-.22.22-.452.347-.695.404a1.26 1.26 0 0 1-.742-.057l-.544 1.826-.823-.82.498-1.63-.382-.382-1.067 1.063-.753-.751Zm2.421-.902.371.37c.174.173.336.266.487.29.15.022.301-.035.452-.186.29-.289.255-.601-.093-.948l-.37-.37-.847.844ZM20.3 51.654l2.295-3.758 2.631 1.596-.452.74-1.715-1.04-.475.774 1.588.96-.452.74-1.588-.96-.475.774 1.715 1.04-.452.74-2.63-1.595.01-.011ZM24.785 54.093l1.38-4.185 1.008.335-1.113 3.365 1.738.578-.266.82-2.759-.901.012-.012ZM30.974 51.11l-.626 4.359-1.055-.15.626-4.359 1.055.15ZM33.257 55.642l-1.148.069 1.217-4.486 1.414-.08 1.75 4.3-1.147.07-.348-.902-1.518.092-.232.937h.012Zm.44-1.758 1.008-.057-.59-1.526h-.035l-.394 1.595.011-.012ZM38.425 54.995 37 50.833l1.738-.59c.464-.162.858-.185 1.16-.07.3.116.51.325.625.637.081.242.081.462-.011.67a1.1 1.1 0 0 1-.452.497v.047c.185-.047.359-.058.533-.024.174.035.324.116.463.232.14.115.244.277.313.474.081.22.093.439.035.659-.058.22-.174.404-.36.578a2.017 2.017 0 0 1-.73.416l-1.877.636h-.011Zm.174-2.798.557-.185c.162-.058.29-.139.37-.266a.428.428 0 0 0 .047-.393.425.425 0 0 0-.267-.277.644.644 0 0 0-.44.011l-.58.197.313.913Zm.557 1.642.626-.209c.22-.069.37-.173.44-.289.081-.115.093-.254.035-.404a.496.496 0 0 0-.302-.324.677.677 0 0 0-.498.012l-.637.22.336.994ZM43.454 52.994l-2.364-3.722.904-.567 1.9 2.994 1.554-.982.463.728-2.457 1.55ZM47.407 50.255l-3.13-3.098 2.168-2.185.614.612-1.414 1.422.637.636 1.31-1.318.614.613-1.31 1.318.65.636 1.414-1.422.614.612-2.167 2.185v-.011ZM34.15 41.203c-.428 0-.834-.162-1.135-.462a.523.523 0 0 1 0-.729.526.526 0 0 1 .73 0c.22.22.591.22.8 0a.577.577 0 0 0 .162-.404.598.598 0 0 0-.162-.405l-.765-.763a.523.523 0 0 1 0-.728.526.526 0 0 1 .73 0l.765.763c.301.3.464.705.464 1.133 0 .428-.163.832-.464 1.133-.301.3-.707.462-1.136.462h.012Z"/><path fill="#106C89" d="M35.994 39.977c-.429 0-.834-.162-1.136-.462l-1.077-1.075a.523.523 0 0 1 0-.729.526.526 0 0 1 .73 0l1.078 1.075c.22.22.59.22.8 0a.577.577 0 0 0 .161-.404c0-.15-.057-.29-.162-.405l-1.379-1.376a.523.523 0 0 1 0-.728.526.526 0 0 1 .73 0l1.38 1.376c.3.3.463.705.463 1.133 0 .427-.162.832-.475 1.133-.301.3-.707.462-1.136.462h.023Z"/><path fill="#106C89" d="M37.823 38.75c-.405 0-.823-.15-1.136-.462l-1.692-1.687a.523.523 0 0 1 0-.729.526.526 0 0 1 .73 0l1.693 1.688c.22.22.59.22.8 0a.576.576 0 0 0 .162-.404.597.597 0 0 0-.163-.405l-1.993-1.989a.523.523 0 0 1 0-.728.526.526 0 0 1 .73 0l1.993 1.989a1.588 1.588 0 0 1-1.135 2.716l.011.012Z"/><path fill="#106C89" d="M39.668 37.527c-.43 0-.835-.162-1.136-.463l-2.307-2.3a.523.523 0 0 1 0-.729.526.526 0 0 1 .73 0l2.307 2.301c.22.22.591.22.8 0a.575.575 0 0 0 0-.798l-5.98-5.965a.522.522 0 0 1 0-.728.526.526 0 0 1 .73 0l5.98 5.965a1.588 1.588 0 0 1-1.136 2.717h.012ZM29.851 41.63a1.588 1.588 0 0 1-1.136-2.717l1.53-1.526a1.598 1.598 0 0 1 2.26 0 1.588 1.588 0 0 1 0 2.255l-1.53 1.525a1.588 1.588 0 0 1-1.135.463h.011Zm1.53-3.7a.6.6 0 0 0-.405.162l-1.53 1.526a.578.578 0 0 0 0 .81c.22.22.58.22.81 0l1.53-1.526a.564.564 0 0 0 0-.798.55.55 0 0 0-.405-.162v-.011Z"/><path fill="#106C89" d="M28.308 40.103a1.588 1.588 0 0 1-1.136-2.717l2.145-2.138a1.598 1.598 0 0 1 2.26 0 1.588 1.588 0 0 1 0 2.254l-2.145 2.139a1.588 1.588 0 0 1-1.135.462h.011Zm2.144-4.312c-.15 0-.29.058-.405.162l-2.144 2.138a.564.564 0 0 0 0 .798c.22.22.58.22.81 0l2.145-2.139a.564.564 0 0 0 0-.797.551.551 0 0 0-.406-.162Z"/><path fill="#106C89" d="M26.781 38.567a1.588 1.588 0 0 1-1.136-2.717l2.144-2.139a1.598 1.598 0 0 1 2.26 0 1.588 1.588 0 0 1 0 2.255l-2.144 2.138c-.301.301-.707.463-1.136.463h.012Zm2.144-4.312a.6.6 0 0 0-.406.162l-2.144 2.138a.564.564 0 1 0 .8.798l2.144-2.139a.564.564 0 0 0 0-.797.551.551 0 0 0-.406-.162h.012Z"/><path fill="#106C89" d="M25.238 37.04a1.588 1.588 0 0 1-1.136-2.717l1.53-1.526a1.598 1.598 0 0 1 2.26 0c.301.3.464.706.464 1.133 0 .428-.163.833-.464 1.133l-1.53 1.526c-.301.3-.707.463-1.136.463l.012-.012Zm1.53-3.7c-.15 0-.29.058-.406.162l-1.53 1.526a.564.564 0 1 0 .8.798l1.53-1.526a.577.577 0 0 0 .162-.404.598.598 0 0 0-.162-.405.551.551 0 0 0-.406-.162l.012.012ZM30.115 31.169a2.292 2.292 0 0 1-1.622-.67 1.344 1.344 0 0 1 0-1.897l2.364-2.96a1.826 1.826 0 0 1 1.252-.67l2.445-.23c.394-.036.8.034 1.17.196l1.426.659a9.797 9.797 0 0 0 3.292.786c.29.023.498.266.475.543-.023.278-.267.509-.545.474a11.034 11.034 0 0 1-3.65-.878l-1.438-.671a1.18 1.18 0 0 0-.626-.104l-2.445.231a.846.846 0 0 0-.545.29l-2.41 3.005c-.163.162-.163.358-.035.486.475.474 1.31.474 1.785 0l1.379-1.376.058-.486a.52.52 0 0 1 1.032.127l-.082.67a.5.5 0 0 1-.15.302l-1.507 1.49a2.291 2.291 0 0 1-1.623.671v.012ZM26.975 26.982c-.533 0-1.055-.081-1.565-.254a.513.513 0 0 1 .325-.972 3.868 3.868 0 0 0 2.318.047l.846-.243c.278-.081.556.08.637.358a.511.511 0 0 1-.359.636l-.846.243a5.012 5.012 0 0 1-1.367.197l.011-.012ZM23.743 33.619a.504.504 0 0 1-.22-.047l-1.067-.485a.52.52 0 0 1-.255-.682c.116-.255.43-.37.684-.255l1.066.486c.255.115.371.428.255.682a.533.533 0 0 1-.463.3ZM41.75 34.66a.537.537 0 0 1-.475-.301.516.516 0 0 1 .267-.682l1.425-.624a.518.518 0 1 1 .418.948l-1.426.624a.455.455 0 0 1-.209.046v-.011Z"/><path fill="#106C89" d="M22.19 33.584a.826.826 0 0 1-.371-.081l-1.994-.856a.955.955 0 0 1-.498-1.248l3.094-7.156a.959.959 0 0 1 1.252-.497l1.994.855a.955.955 0 0 1 .498 1.249l-3.095 7.156a.955.955 0 0 1-.869.578h-.011Zm-1.89-1.85 1.843.798 3.025-7.006-1.843-.798-3.024 7.006ZM43.722 34.451a.933.933 0 0 1-.348-.069.975.975 0 0 1-.522-.509l-3.094-7.156a.887.887 0 0 1 0-.728.974.974 0 0 1 .51-.52l1.993-.856a.892.892 0 0 1 .73 0 .975.975 0 0 1 .522.509l3.094 7.156a.945.945 0 0 1-.498 1.248l-1.993.856c-.116.046-.244.08-.371.08l-.023-.01Zm-2.99-8.069 3.024 7.006 1.843-.798-3.025-7.006-1.843.798Z"/><path fill="#106C89" d="M32.955 63.988c-17.686 0-32.08-14.358-32.08-32C.875 14.347 15.269 0 32.955 0s32.08 14.358 32.08 32-14.394 32-32.08 32v-.012Zm0-62.774C15.941 1.214 2.092 15.029 2.092 32c0 16.971 13.85 30.786 30.863 30.786 17.014 0 30.863-13.815 30.863-30.786 0-16.971-13.838-30.786-30.863-30.786Z"/><path fill="#106C89" d="M15.014 42.89a.585.585 0 0 1-.522-.3A21.156 21.156 0 0 1 11.664 32a21.325 21.325 0 0 1 6.826-15.595.607.607 0 0 1 .823.89 20.094 20.094 0 0 0-6.444 14.706c0 3.514.928 6.96 2.666 9.988a.617.617 0 0 1-.22.832.562.562 0 0 1-.301.081v-.011ZM50.595 43.399a.615.615 0 0 1-.313-.093.6.6 0 0 1-.197-.832 20.007 20.007 0 0 0 2.967-10.485c0-6.058-2.7-11.723-7.418-15.55a.616.616 0 0 1-.093-.855.62.62 0 0 1 .858-.093c4.995 4.058 7.87 10.07 7.87 16.486 0 3.93-1.09 7.78-3.141 11.121a.612.612 0 0 1-.522.29l-.011.01Z"/></svg>