<svg xmlns="http://www.w3.org/2000/svg" width="65" height="64" fill="none" viewBox="0 0 65 64"><path fill="#DDF1F8" d="M61.248 32.024c0 2.504-2.3 4.67-2.916 6.977-.64 2.388.255 5.401-.965 7.5-1.231 2.12-4.31 2.85-6.03 4.577-1.72 1.715-2.463 4.787-4.59 6.015-2.091 1.206-5.123.325-7.517.962-2.312.615-4.485 2.91-6.995 2.91s-4.682-2.295-6.994-2.91c-2.394-.637-5.415.255-7.518-.962-2.126-1.228-2.858-4.3-4.59-6.015-1.719-1.715-4.798-2.457-6.03-4.578-1.208-2.086-.325-5.111-.964-7.499-.616-2.306-2.916-4.473-2.916-6.977 0-2.503 2.3-4.67 2.916-6.977.64-2.387-.256-5.4.964-7.499 1.232-2.12 4.311-2.85 6.03-4.578 1.72-1.715 2.464-4.786 4.59-6.015 2.092-1.205 5.124-.324 7.518-.962 2.312-.614 4.485-2.909 6.994-2.909 2.51 0 4.683 2.295 6.995 2.91 2.394.637 5.414-.256 7.517.961 2.127 1.229 2.859 4.3 4.59 6.015 1.72 1.716 4.799 2.457 6.03 4.578 1.209 2.087.326 5.112.965 7.499.615 2.306 2.916 4.474 2.916 6.977Z"/><path fill="#106C89" d="M32.248 64c-1.754 0-3.311-.904-4.81-1.785-1.011-.591-1.964-1.147-2.928-1.402-1.011-.267-2.15-.267-3.358-.267-1.708 0-3.486 0-4.938-.834-1.476-.858-2.37-2.4-3.219-3.895-.592-1.031-1.15-2.005-1.882-2.735s-1.708-1.286-2.742-1.877c-1.499-.858-3.044-1.739-3.904-3.21-.848-1.45-.837-3.223-.837-4.927 0-1.205 0-2.34-.267-3.35-.255-.961-.813-1.912-1.406-2.92C1.074 35.303.168 33.75.168 32s.906-3.303 1.79-4.798c.592-1.009 1.15-1.959 1.405-2.921.267-1.008.267-2.144.267-3.35 0-1.703 0-3.477.837-4.925.86-1.472 2.405-2.365 3.904-3.21 1.034-.592 2.01-1.148 2.742-1.878.732-.73 1.29-1.704 1.882-2.735.86-1.496 1.743-3.037 3.219-3.895 1.452-.846 3.23-.834 4.938-.834 1.208 0 2.347 0 3.358-.267.964-.255 1.917-.811 2.928-1.402C28.937.904 30.494 0 32.248 0c1.755 0 3.311.904 4.81 1.785 1.011.591 1.964 1.147 2.928 1.402 1.011.267 2.161.267 3.358.267 1.72 0 3.486 0 4.938.834 1.476.858 2.37 2.4 3.219 3.895.592 1.031 1.15 2.005 1.882 2.735s1.708 1.286 2.742 1.877c1.499.858 3.044 1.739 3.904 3.21.848 1.45.837 3.223.837 4.927 0 1.205 0 2.34.267 3.349.255.962.813 1.912 1.406 2.92.883 1.496 1.79 3.049 1.79 4.799 0 1.75-.907 3.303-1.79 4.798-.593 1.008-1.15 1.959-1.406 2.92-.267 1.01-.267 2.145-.267 3.35 0 1.704 0 3.477-.837 4.926-.86 1.484-2.405 2.364-3.904 3.21-1.034.592-2.01 1.148-2.742 1.878-.72.719-1.29 1.704-1.882 2.735-.86 1.495-1.743 3.037-3.219 3.895-1.452.846-3.23.834-4.938.834-1.208 0-2.347 0-3.358.267-.964.255-1.917.81-2.928 1.402-1.499.88-3.056 1.785-4.81 1.785Zm-10.794-4.66c1.139 0 2.289.024 3.37.314 1.115.301 2.184.927 3.218 1.53 1.43.834 2.777 1.61 4.194 1.61 1.418 0 2.777-.788 4.195-1.61 1.034-.603 2.103-1.229 3.218-1.53 1.174-.313 2.44-.313 3.672-.313 1.627 0 3.149 0 4.322-.672 1.197-.696 1.964-2.029 2.777-3.443.604-1.054 1.232-2.144 2.068-2.99.837-.846 1.94-1.46 2.998-2.063 1.418-.811 2.754-1.576 3.45-2.77.675-1.17.675-2.7.675-4.311 0-1.229 0-2.504.314-3.663.302-1.113.929-2.179 1.533-3.21.837-1.426 1.615-2.77 1.615-4.184 0-1.414-.79-2.77-1.615-4.184-.604-1.032-1.231-2.098-1.533-3.21-.314-1.171-.314-2.435-.314-3.663 0-1.623 0-3.141-.674-4.312-.697-1.193-2.033-1.958-3.451-2.77-1.057-.602-2.15-1.228-2.998-2.063-.848-.834-1.464-1.935-2.068-2.99-.813-1.414-1.58-2.747-2.777-3.442-1.173-.672-2.695-.672-4.322-.672-1.232 0-2.51 0-3.672-.313-1.115-.302-2.184-.927-3.218-1.53-1.43-.835-2.777-1.611-4.195-1.611-1.417 0-2.776.788-4.194 1.61-1.034.604-2.103 1.23-3.219 1.53-1.173.314-2.44.314-3.671.314-1.615 0-3.149 0-4.322.672-1.197.695-1.964 2.028-2.777 3.442-.605 1.055-1.232 2.144-2.069 2.99-.836.835-1.94 1.46-2.997 2.063-1.418.812-2.754 1.577-3.451 2.77-.674 1.171-.674 2.7-.674 4.312 0 1.228 0 2.503-.314 3.662-.302 1.113-.93 2.18-1.533 3.21-.837 1.426-1.615 2.77-1.615 4.185 0 1.414.79 2.77 1.615 4.184.604 1.031 1.231 2.097 1.533 3.21.314 1.17.314 2.434.314 3.663 0 1.622 0 3.14.674 4.311.697 1.194 2.033 1.959 3.45 2.77 1.058.603 2.15 1.229 2.998 2.063.837.835 1.464 1.936 2.069 2.99.813 1.414 1.58 2.747 2.777 3.443 1.173.672 2.707.672 4.322.672h.314-.012Z"/><path fill="#106C89" d="M14.878 43.463a.609.609 0 0 1-.511-.29 21.002 21.002 0 0 1-3.207-11.16c0-3.5.883-6.978 2.545-10.038a.613.613 0 0 1 .825-.243.61.61 0 0 1 .244.823 19.85 19.85 0 0 0-2.394 9.457c0 3.732 1.046 7.36 3.021 10.513.174.29.093.66-.197.834a.658.658 0 0 1-.326.093v.011ZM49.55 43.59a.658.658 0 0 1-.326-.093c-.279-.185-.372-.556-.186-.834a19.675 19.675 0 0 0 3.102-10.64c0-3.326-.836-6.618-2.428-9.504a.6.6 0 0 1 .244-.823.603.603 0 0 1 .825.244 21.04 21.04 0 0 1 2.58 10.095c0 4.01-1.14 7.916-3.289 11.288a.597.597 0 0 1-.511.278l-.012-.011Z"/><path fill="#fff" d="m36.873 44.737-3.637 2.26a1.884 1.884 0 0 1-1.998 0l-3.614-2.26a19.48 19.48 0 0 1-9.179-16.515v-5.25c0-.905.651-1.693 1.546-1.855l.464-.081a30.15 30.15 0 0 0 9.028-3.234l1.5-.823a1.875 1.875 0 0 1 1.8-.011l1.766.927a29.852 29.852 0 0 0 8.656 2.99l1.337.243a1.89 1.89 0 0 1 1.556 1.855v5.227c0 6.722-3.474 12.98-9.202 16.539l-.023-.012Z"/><path fill="#DDF1F8" d="M32.26 39.986c4.39 0 7.947-3.55 7.947-7.928s-3.558-7.927-7.947-7.927c-4.39 0-7.947 3.55-7.947 7.927 0 4.379 3.558 7.928 7.947 7.928Z"/><path fill="#106C89" d="M30.783 35.303a.617.617 0 0 1-.43-.174l-2.347-2.341a.615.615 0 0 1 0-.858.618.618 0 0 1 .86 0l1.917 1.913 4.857-4.845a.618.618 0 0 1 .86 0 .615.615 0 0 1 0 .858l-5.287 5.273a.617.617 0 0 1-.43.174ZM25.323 11.533a.528.528 0 0 0-.313-.278c-.14-.046-.302-.023-.5.046-.197.07-.325.162-.395.278a.35.35 0 0 0-.035.336.313.313 0 0 0 .268.22c.139.024.302.024.51 0l.384-.057c.442-.07.813-.047 1.104.08.29.128.511.349.639.673.151.394.128.753-.081 1.09-.21.336-.558.59-1.08.8-.524.196-.977.243-1.384.127-.406-.116-.697-.406-.894-.893l.953-.37c.093.196.22.312.395.359a.903.903 0 0 0 .592-.058c.198-.081.337-.174.418-.302.082-.127.105-.243.059-.37a.334.334 0 0 0-.268-.21 2.283 2.283 0 0 0-.569 0l-.465.07c-.383.058-.72.035-.999-.07-.279-.103-.476-.312-.593-.625a1.21 1.21 0 0 1-.058-.753c.07-.244.198-.464.395-.672.198-.197.465-.36.779-.487a2.16 2.16 0 0 1 .895-.162c.278.011.522.092.72.243.197.15.36.348.465.602l-.953.371.011.012ZM29.252 13.688l-1.139.128 1.011-4.543 1.418-.15 1.963 4.23-1.138.127-.395-.893-1.523.163-.185.95-.012-.011Zm.36-1.784 1.011-.105-.662-1.506h-.035l-.314 1.61ZM33.445 13.456l.64-4.37 2.985.43-.127.857-1.93-.278-.127.893 1.743.255-.128.857-1.743-.255-.255 1.75-1.058-.15v.011ZM37.418 14.153l1.627-4.103 2.87 1.124-.314.811-1.87-.741-.338.846 1.731.683-.313.812-1.731-.684-.337.846 1.87.742-.313.811-2.87-1.124-.012-.023ZM22.08 48.342a.468.468 0 0 0 .128-.394c-.012-.139-.093-.29-.244-.44-.14-.15-.28-.232-.407-.255a.368.368 0 0 0-.325.093.354.354 0 0 0-.105.336c.023.139.093.29.21.463l.197.336c.232.383.36.73.36 1.043 0 .313-.116.603-.372.846-.302.29-.65.406-1.034.348-.383-.058-.767-.278-1.15-.672-.384-.394-.604-.8-.662-1.217-.058-.417.104-.8.476-1.17l.709.73c-.14.162-.21.324-.186.498.023.185.116.36.279.521.15.151.302.244.441.267.14.023.267 0 .36-.093.093-.092.117-.197.093-.336-.023-.127-.104-.301-.232-.521l-.244-.406c-.198-.336-.314-.649-.325-.939-.012-.29.104-.556.348-.788.198-.197.419-.301.674-.347.256-.035.511 0 .779.104.267.104.51.278.743.521.244.244.407.499.5.765.093.267.116.51.058.765a1.355 1.355 0 0 1-.372.66l-.709-.73.012.012ZM22.348 52.538l2.103-3.883 2.707 1.46-.419.766-1.777-.962-.43.8 1.638.88-.418.765-1.638-.88-.43.799 1.777.962-.418.765-2.707-1.46.012-.012ZM31.677 52.735l-1.07-.186c0-.22-.046-.405-.174-.568a.868.868 0 0 0-.546-.29.926.926 0 0 0-.813.22c-.22.198-.372.51-.442.916-.07.43-.035.777.105 1.032s.372.405.685.463c.233.035.43.012.605-.08a.761.761 0 0 0 .36-.441l1.069.185c-.058.186-.14.371-.267.545a1.682 1.682 0 0 1-.465.44 1.924 1.924 0 0 1-.65.267 2.46 2.46 0 0 1-.826 0 2.23 2.23 0 0 1-1.01-.44 1.882 1.882 0 0 1-.605-.881c-.128-.36-.14-.788-.058-1.264.081-.475.244-.869.488-1.17.244-.301.535-.51.871-.626.337-.116.71-.15 1.093-.081.348.058.65.174.906.36.256.173.453.405.58.671.129.279.187.591.163.94v-.012ZM35.419 50.66l1.045-.186.5 2.874c.058.325.035.626-.081.88a1.443 1.443 0 0 1-.558.627c-.256.162-.57.278-.93.347-.371.07-.697.058-.999 0a1.505 1.505 0 0 1-.743-.405c-.198-.197-.326-.464-.384-.8l-.5-2.874 1.058-.186.5 2.828c.034.197.139.336.302.429.162.093.371.116.604.07.244-.047.418-.14.546-.279a.573.573 0 0 0 .14-.51l-.5-2.828v.012ZM39.427 54.022l-2.126-3.871 1.603-.881c.29-.163.57-.244.837-.255.267 0 .511.046.732.173.22.128.406.325.546.592.15.266.209.521.197.776a1.203 1.203 0 0 1-.267.696l1.615 1.031-1.022.556-1.441-.938-.476.266.732 1.321-.942.51.012.024Zm-.197-2.573.464-.255c.21-.116.349-.244.407-.395.07-.139.046-.3-.047-.486-.197-.36-.51-.418-.94-.186l-.465.255.58 1.055v.012ZM44.156 51.02l-3.195-3.06 2.138-2.226.627.603-1.394 1.449.65.626 1.29-1.333.628.602-1.29 1.333.65.626 1.395-1.449.627.603-2.137 2.225h.011Z"/></svg>